<svg width="14" height="10" fill="none" xmlns="http://www.w3.org/2000/svg"><rect width="14" height="10" rx="2" fill="#fff"/><mask id="a" style="mask-type:luminance" maskUnits="userSpaceOnUse" x="0" y="0" width="14" height="10"><rect x=".25" y=".25" width="13.5" height="9.5" rx="1.75" fill="#fff" stroke="#fff" stroke-width=".5"/></mask><g mask="url(#a)"><path fill="#E3283E" d="M9.333 0H14v10H9.333z"/><path fill-rule="evenodd" clip-rule="evenodd" d="M0 10h4.667V0H0v10Z" fill="#128A60"/><path d="M6.333 4.667a.667.667 0 1 0-1.333 0h1.333Zm-.336 1.73a.667.667 0 0 0 .67-1.153l-.67 1.153ZM7.358 5.23a.667.667 0 1 0 .719 1.123L7.358 5.23ZM9 4.667a.667.667 0 0 0-1.333 0H9Zm-4 0a2 2 0 0 0 .997 1.73l.67-1.153a.666.666 0 0 1-.334-.577H5Zm3.077 1.685C8.63 5.998 9 5.376 9 4.667H7.667a.666.666 0 0 1-.309.562l.719 1.123Z" fill="#8C9157"/><path fill-rule="evenodd" clip-rule="evenodd" d="M7 5.333c.368 0 .667-.447.667-1 0-.552-.299-1-.667-1-.368 0-.667.448-.667 1 0 .553.299 1 .667 1Z" fill="#C59262"/></g></svg>